<svg id="Layer_1" data-name="Layer 1" xmlns="http://www.w3.org/2000/svg" viewBox="0 0 49 28"><g id="Artboard"><g id="truck-light"><path id="Shape" d="M48.87,17.11a.79.79,0,0,0-.23-.14l-3.2-4.8a4.28,4.28,0,0,0-3.57-1.92H35.36V9.81A3.79,3.79,0,0,0,31.55,6H3.69a.65.65,0,0,0-.49.19.67.67,0,0,0-.2.48V28.75a.71.71,0,0,0,.69.73H5.06a5.17,5.17,0,0,0,10.26,0H23.2a5.18,5.18,0,0,0,10.27,0h5.08a5.17,5.17,0,0,0,10.26,0h2.5a.71.71,0,0,0,.69-.73V22a4.35,4.35,0,0,0-1.3-3.1Zm-7-5.44A2.85,2.85,0,0,1,44.26,13l2.65,4H35.36V11.67ZM4.41,7.42H31.55A2.37,2.37,0,0,1,34,9.81V28.07h-.49a5.17,5.17,0,0,0-10.25,0h-7.9a5.17,5.17,0,0,0-10.25,0H4.41Zm5.78,25.13A3.78,3.78,0,1,1,14,28.77,3.77,3.77,0,0,1,10.19,32.55Zm18.15,0a3.78,3.78,0,1,1,3.76-3.78A3.77,3.77,0,0,1,28.34,32.55Zm15.34,0a3.78,3.78,0,1,1,3.77-3.78,3.77,3.77,0,0,1-3.77,3.78Zm6.91-4.48H48.81a5.17,5.17,0,0,0-10.25,0h-3.2V18.35H48.09l1.63,1.57A2.87,2.87,0,0,1,50.59,22Z" transform="translate(-3 -6)"/><path id="Path" d="M17.7,13H28.3c.39,0,.7-.22.7-.5s-.31-.5-.7-.5H17.7c-.39,0-.7.22-.7.5s.31.5.7.5Z" transform="translate(-3 -6)"/><path id="Path-2" data-name="Path" d="M8.71,17H28.29c.39,0,.71-.22.71-.5s-.32-.5-.71-.5H8.71c-.39,0-.71.22-.71.5S8.32,17,8.71,17Z" transform="translate(-3 -6)"/><path id="Path-3" data-name="Path" d="M28.27,19H14.73c-.4,0-.73.22-.73.5s.33.5.73.5H28.27c.4,0,.73-.22.73-.5S28.67,19,28.27,19Z" transform="translate(-3 -6)"/></g></g></svg>